<svg width="93" height="44" viewBox="0 0 93 44" fill="none" xmlns="http://www.w3.org/2000/svg">
<path d="M33.4222 8.70053L33.6444 8.87756L33.7918 8.63464C36.8207 3.64055 42.557 0.25 49.148 0.25C58.8891 0.25 66.767 7.6337 66.767 16.706C66.767 17.4128 66.7131 18.0672 66.6298 18.7539L66.5994 19.0052L66.851 19.0325C70.8458 19.467 74.2408 21.7226 76.1951 24.899L76.297 25.0646L76.4825 25.0066C77.3448 24.7374 78.2337 24.602 79.179 24.602C84.2769 24.602 88.404 28.7291 88.404 33.827C88.404 38.9249 84.2769 43.052 79.179 43.052H79.0634H78.9479H78.8323H78.7168H78.6013H78.4858H78.3703H78.2548H78.1393H78.0239H77.9084H77.793H77.6776H77.5622H77.4468H77.3315H77.2161H77.1007H76.9854H76.8701H76.7548H76.6395H76.5242H76.4089H76.2937H76.1784H76.0632H75.948H75.8328H75.7176H75.6024H75.4872H75.372H75.2569H75.1418H75.0266H74.9115H74.7964H74.6813H74.5663H74.4512H74.3361H74.2211H74.1061H73.991H73.876H73.761H73.646H73.5311H73.4161H73.3011H73.1862H73.0713H72.9564H72.8414H72.7265H72.6116H72.4968H72.3819H72.267H72.1522H72.0374H71.9225H71.8077H71.6929H71.5781H71.4633H71.3485H71.2338H71.119H71.0043H70.8895H70.7748H70.6601H70.5454H70.4307H70.316H70.2013H70.0866H69.9719H69.8573H69.7427H69.628H69.5134H69.3988H69.2842H69.1696H69.055H68.9404H68.8258H68.7112H68.5967H68.4821H68.3676H68.2531H68.1385H68.024H67.9095H67.795H67.6805H67.566H67.4515H67.3371H67.2226H67.1082H66.9937H66.8793H66.7648H66.6504H66.536H66.4216H66.3072H66.1928H66.0784H65.964H65.8496H65.7353H65.6209H65.5066H65.3922H65.2779H65.1635H65.0492H64.9349H64.8206H64.7063H64.592H64.4777H64.3634H64.2491H64.1348H64.0206H63.9063H63.792H63.6778H63.5635H63.4493H63.335H63.2208H63.1066H62.9924H62.8782H62.764H62.6497H62.5355H62.4214H62.3072H62.193H62.0788H61.9646H61.8505H61.7363H61.6221H61.508H61.3938H61.2797H61.1656H61.0514H60.9373H60.8232H60.709H60.5949H60.4808H60.3667H60.2526H60.1385H60.0244H59.9103H59.7962H59.6821H59.568H59.4539H59.3399H59.2258H59.1117H58.9977H58.8836H58.7695H58.6555H58.5414H58.4274H58.3133H58.1993H58.0852H57.9712H57.8572H57.7431H57.6291H57.5151H57.401H57.287H57.173H57.059H56.945H56.8309H56.7169H56.6029H56.4889H56.3749H56.2609H56.1469H56.0329H55.9189H55.8049H55.6909H55.5769H55.4629H55.3489H55.2349H55.1209H55.007H54.893H54.779H54.665H54.551H54.437H54.323H54.2091H54.0951H53.9811H53.8671H53.7531H53.6392H53.5252H53.4112H53.2972H53.1833H53.0693H52.9553H52.8413H52.7274H52.6134H52.4994H52.3854H52.2714H52.1575H52.0435H51.9295H51.8155H51.7016H51.5876H51.4736H51.3596H51.2456H51.1316H51.0177H50.9037H50.7897H50.6757H50.5617H50.4477H50.3337H50.2197H50.1058H49.9918H49.8778H49.7638H49.6498H49.5358H49.4218H49.3078H49.1937H49.0797H48.9657H48.8517H48.7377H48.6237H48.5097H48.3956H48.2816H48.1676H48.0536H47.9395H47.8255H47.7115H47.5974H47.4834H47.3693H47.2553H47.1412H47.0272H46.9131H46.7991H46.685H46.5709H46.4569H46.3428H46.2287H46.1146H46.0005H45.8865H45.7724H45.6583H45.5442H45.4301H45.316H45.2019H45.0877H44.9736H44.8595H44.7454H44.6312H44.5171H44.403H44.2888H44.1747H44.0605H43.9464H43.8322H43.718H43.6039H43.4897H43.3755H43.2613H43.1471H43.0329H42.9187H42.8045H42.6903H42.5761H42.4618H42.3476H42.2334H42.1191H42.0049H41.8906H41.7764H41.6621H41.5478H41.4336H41.3193H41.205H41.0907H40.9764H40.8621H40.7478H40.6334H40.5191H40.4048H40.2904H40.1761H40.0617H39.9474H39.833H39.7186H39.6043H39.4899H39.3755H39.2611H39.1467H39.0322H38.9178H38.8034H38.6889H38.5745H38.46H38.3456H38.2311H38.1166H38.0021H37.8876H37.7731H37.6586H37.5441H37.4296H37.3151H37.2005H37.086H36.9714H36.8568H36.7423H36.6277H36.5131H36.3985H36.2839H36.1693H36.0546H35.94H35.8253H35.7107H35.596H35.4814H35.3667H35.252H35.1373H35.0226H34.9078H34.7931H34.6784H34.5636H34.4489H34.3341H34.2193H34.1045H33.9897H33.8749H33.7601H33.6453H33.5304H33.4156H33.3007H33.1859H33.071H32.9561H32.8412H32.7263H32.6114H32.4964H32.3815H32.2665H32.1516H32.0366H31.9216H31.8066H31.6916H31.5766H31.4615H31.3465H31.2314H31.1164H31.0013H30.8862H30.7711H30.656H30.5409H30.4257H30.3106H30.1954H30.0802H29.9651H29.8499H29.7347H29.6194H29.5042H29.389H29.2737H29.1584H29.0431H28.9278H28.8125H28.6972H28.5819H28.4665H28.3512H28.2358H28.1204H28.005H27.8896H27.7742H27.6587H27.5433H27.4278H27.3123H27.1968H27.0813H26.9658H26.8503H26.7347H26.6192H26.5036H26.388H26.2724H26.1568H26.0412H25.9255H25.8098H25.6942H25.5785H25.4628H25.3471H25.2313H25.1156H24.9998H24.884H24.7683H24.6524H24.5366H24.4208H24.3049H24.1891H24.0732H23.9573H23.8414H23.7255H23.6095H23.4936H23.3776H23.2616H23.1456H23.0296H22.9135H22.7975H22.6814H22.5653H22.4492H22.3331H22.217H22.1008H21.9847H21.8685H21.7523H21.6361H21.5198H21.4036H21.2873H21.171H21.0547H20.9384H20.8221H20.7058H20.5894H20.473C9.29855 43.052 0.25 34.3446 0.25 23.632C0.250986 12.9194 9.29955 4.212 20.474 4.212C25.403 4.212 29.9194 5.90989 33.4222 8.70053Z" stroke="#F4F4F4" stroke-width="0.5"/>
<path fill-rule="evenodd" clip-rule="evenodd" d="M70.7029 8.9209H85.248C86.079 8.9209 86.7719 9.03358 86.7719 9.17309C86.7719 9.30822 86.079 9.4209 85.248 9.4209H70.7029C69.8439 9.4209 69.179 9.30822 69.179 9.17309C69.179 9.03358 69.8439 8.9209 70.7029 8.9209Z" fill="#F2F2F2"/>
<path fill-rule="evenodd" clip-rule="evenodd" d="M84.0009 17.1221H90.8439C91.8969 17.1221 92.756 17.2352 92.756 17.3702C92.756 17.5089 91.8969 17.6221 90.8439 17.6221H84.0009C82.9759 17.6221 82.1169 17.5089 82.1169 17.3702C82.1169 17.2352 82.9759 17.1221 84.0009 17.1221Z" fill="#F2F2F2"/>
<path fill-rule="evenodd" clip-rule="evenodd" d="M65.9929 0.749023H71.1179C71.9209 0.749023 72.5859 0.862273 72.5859 0.999024C72.5859 1.13577 71.9209 1.24902 71.1179 1.24902H65.9929C65.1889 1.24902 64.5249 1.13577 64.5249 0.999024C64.5249 0.862103 65.1889 0.749023 65.9929 0.749023Z" fill="#F2F2F2"/>
</svg>
